<svg width="164" height="164" viewBox="0 0 164 164" fill="none" xmlns="http://www.w3.org/2000/svg"><path d="M156.973 28.274l-38.438-10.25a2.551 2.551 0 00-1.364.012L82 28.086l-12.769-3.649a24.78 24.78 0 00-.69-1.345A25.384 25.384 0 0047.082 9.908a28.56 28.56 0 00-1.917 0A25.384 25.384 0 0023.71 23.092c-.157.283-.308.568-.453.855l-16.23 4.327a2.563 2.563 0 00-1.902 2.476v102.5a2.565 2.565 0 002.06 2.513c.386.077.783.064 1.163-.037l37.753-10.067 35.194 10.055c.46.134.948.131 1.406-.006l.002.006 35.195-10.055 37.754 10.067a2.567 2.567 0 002.222-.444 2.57 2.57 0 001.001-2.032V30.75a2.565 2.565 0 00-1.902-2.476zm-72.41 68.711a2.557 2.557 0 000-4.345V32.683l30.749-8.786v18.314a11.208 11.208 0 000 21.281v23.843a15.335 15.335 0 00-6.09 2.456 15.377 15.377 0 00-2.124 23.675 15.383 15.383 0 007.909 4.139c.102.019.204.032.305.05v3.412l-30.75 8.786V96.985zm31.4 15.585a10.245 10.245 0 01-8.123-7.983 10.252 10.252 0 014.266-10.56 10.257 10.257 0 019.609-1.03 10.253 10.253 0 016.196 7.416 10.244 10.244 0 01-2.725 9.271 10.25 10.25 0 01-9.223 2.886zm2.873-53.632a6.085 6.085 0 01-4.303-10.39 6.083 6.083 0 019.363.922 6.084 6.084 0 011.026 3.382 6.094 6.094 0 01-6.086 6.086zM45.338 15.03a24.792 24.792 0 011.573 0 20.3 20.3 0 0117.151 10.555c3.872 6.955 3.3 15.804-1.458 22.542L46.125 71.47 29.646 48.127c-4.758-6.738-5.33-15.587-1.459-22.542A20.301 20.301 0 0145.338 15.03zm.787 84.908a6.086 6.086 0 116.086-6.086 6.092 6.092 0 01-6.086 6.086zM10.25 32.718l10.903-2.906a26.825 26.825 0 004.306 21.271l18.104 25.643v6.214a11.208 11.208 0 000 21.824v16.268l-33.313 8.883V32.719zm69.188 97.137l-30.75-8.786v-16.304a11.205 11.205 0 008.648-10.912 11.208 11.208 0 00-8.648-10.912v-6.214L66.79 51.084a26.846 26.846 0 004.415-20.753l8.231 2.352v97.172zm74.312.061l-33.312-8.885v-3.365a15.38 15.38 0 00.305-30.27c-.102-.02-.204-.032-.305-.05v-23.4a11.211 11.211 0 000-22.189V23.836l33.312 8.883v97.197z" fill="#599CC1"/><path d="M46.125 49.048a11.212 11.212 0 10-11.21-11.21 11.224 11.224 0 0011.21 11.21zm0-17.297a6.086 6.086 0 11-6.086 6.086 6.092 6.092 0 016.086-6.086zm46.272 59.727l-.182.106a2.563 2.563 0 002.534 4.456 8.27 8.27 0 00.362-.215 2.562 2.562 0 10-2.714-4.347zm4.978-20.654a2.563 2.563 0 00-2.563 2.563v.317a2.563 2.563 0 005.126 0v-.317a2.563 2.563 0 00-2.563-2.563zm0 10.766a2.563 2.563 0 00-2.563 2.563v.317a2.563 2.563 0 005.126 0v-.317a2.563 2.563 0 00-2.563-2.563zm6.086-24.962a2.56 2.56 0 00.404-4.763 2.564 2.564 0 00-1.996-.106 8.49 8.49 0 00-.4.138 2.564 2.564 0 101.797 4.802c.064-.026.131-.048.195-.07zm-6.086 3.431a2.563 2.563 0 00-2.563 2.562v.317a2.563 2.563 0 005.126 0v-.317a2.563 2.563 0 00-2.563-2.562zM61.676 92.25h-.317a2.563 2.563 0 000 5.125h.317a2.563 2.563 0 000-5.125zm72.929-35.875h.317a2.563 2.563 0 000-5.125h-.317a2.563 2.563 0 000 5.125zm10.766 0h.317a2.565 2.565 0 002.562-2.563 2.565 2.565 0 00-2.562-2.562h-.317a2.561 2.561 0 00-1.812 4.374 2.56 2.56 0 001.812.751zM69.563 94.813a2.563 2.563 0 002.562 2.562h.317a2.563 2.563 0 000-5.125h-.317a2.563 2.563 0 00-2.563 2.563zM29.38 92.25h-.318a2.563 2.563 0 000 5.125h.317a2.563 2.563 0 000-5.125zm-10.767 0h-.317a2.563 2.563 0 000 5.125h.317a2.563 2.563 0 000-5.125zm105.617 5.924a2.565 2.565 0 00-2.118-1.121h-.026l-9.238.09a2.563 2.563 0 10.024 5.125h.026l5.395-.053-2.026 5.001a2.563 2.563 0 104.749 1.924l3.47-8.562a2.557 2.557 0 00-.256-2.404z" fill="#599CC1"/></svg>