<svg width="179" height="179" viewBox="0 0 179 179" fill="none" xmlns="http://www.w3.org/2000/svg"><path d="M122.371 46.019H56.63c-5.899.007-10.677 4.786-10.683 10.683v65.741c.006 5.897 4.784 10.677 10.683 10.683h65.741c5.897-.006 10.677-4.786 10.683-10.683V56.702c-.006-5.897-4.786-10.676-10.683-10.683zm5.753 76.424a5.761 5.761 0 01-5.753 5.753H56.63a5.759 5.759 0 01-5.753-5.753V56.702a5.757 5.757 0 015.753-5.752h65.741a5.76 5.76 0 015.753 5.752v65.741z" fill="#599CC1"/><path d="M130.589 33.692H48.412c-8.166.01-14.784 6.626-14.792 14.792v82.177c.008 8.165 6.626 14.782 14.792 14.792h82.177c8.164-.01 14.782-6.627 14.792-14.792V48.484c-.01-8.166-6.628-14.782-14.792-14.792zm9.861 96.969c-.006 5.444-4.419 9.855-9.861 9.861H48.412a9.871 9.871 0 01-9.861-9.861V48.484c.005-5.444 4.417-9.855 9.86-9.861h82.178c5.442.006 9.855 4.417 9.861 9.861v82.177zm-42.067 22.863a2.466 2.466 0 00-2.465 2.466v20.544a2.464 2.464 0 104.93 0V155.99a2.467 2.467 0 00-2.465-2.466zm-17.765 0a2.466 2.466 0 00-2.465 2.466v20.544a2.464 2.464 0 104.93 0V155.99a2.467 2.467 0 00-2.465-2.466zm-17.764 0a2.467 2.467 0 00-2.465 2.466v20.544a2.464 2.464 0 104.93 0V155.99a2.467 2.467 0 00-2.465-2.466zm53.293 0a2.465 2.465 0 00-2.465 2.466v20.544a2.464 2.464 0 104.93 0V155.99a2.466 2.466 0 00-2.465-2.466zM83.084 23.01V2.464a2.466 2.466 0 00-4.931 0V23.01a2.465 2.465 0 104.93 0zm17.764 0V2.464a2.466 2.466 0 00-4.93 0V23.01a2.465 2.465 0 104.93 0zm17.764 0V2.464a2.466 2.466 0 00-4.93 0V23.01a2.464 2.464 0 104.93 0zm-53.292 0V2.464a2.466 2.466 0 00-4.931 0V23.01a2.466 2.466 0 004.93 0zm111.214 55.143H155.99a2.466 2.466 0 100 4.93h20.544a2.464 2.464 0 100-4.93zm0 17.765H155.99a2.466 2.466 0 100 4.93h20.544a2.464 2.464 0 100-4.93zm0 17.764H155.99a2.465 2.465 0 100 4.93h20.544a2.464 2.464 0 100-4.93zm0-53.293H155.99a2.467 2.467 0 000 4.93h20.544a2.464 2.464 0 100-4.93zM23.01 95.918H2.464a2.465 2.465 0 100 4.93H23.01a2.466 2.466 0 000-4.93zm0-17.765H2.464a2.465 2.465 0 100 4.93H23.01a2.466 2.466 0 000-4.93zm0-17.764H2.464a2.466 2.466 0 000 4.93H23.01a2.466 2.466 0 000-4.93zm0 53.293H2.464a2.464 2.464 0 100 4.93H23.01a2.466 2.466 0 000-4.93z" fill="#599CC1"/><g clip-path="url(#clip0)" fill="#599CC1"><path d="M105.454 91.723H94.687a4.426 4.426 0 00-4.184-3.001 4.426 4.426 0 00-4.185 3.001h-7.869a3.132 3.132 0 01-3.128-3.128 3.13 3.13 0 013.126-3.126h26.671a3.18 3.18 0 002.322-1.012c2.858-3.075 6.264-7.406 6.264-10.578 0-4.733-3.852-8.584-8.586-8.584s-8.586 3.851-8.586 8.584c0 2.584 2.26 5.937 4.644 8.754h-22.73a5.969 5.969 0 00-5.962 5.962 5.972 5.972 0 005.965 5.965h7.869a4.427 4.427 0 004.184 3.001 4.427 4.427 0 004.185-3.001h10.767a5.42 5.42 0 015.414 5.414 5.42 5.42 0 01-5.414 5.414h-4.701a4.426 4.426 0 00-4.185-3.002 4.427 4.427 0 00-4.184 3.002H78.947c-.656-3.126-3.435-5.48-6.753-5.48-3.804 0-6.9 3.094-6.9 6.898s3.096 6.898 6.9 6.898c3.319 0 6.097-2.354 6.753-5.48h13.436a4.427 4.427 0 004.184 3.002 4.426 4.426 0 004.185-3.002h4.701c4.549 0 8.25-3.701 8.25-8.25 0-4.55-3.701-8.25-8.25-8.25zm-.336-23.591c3.17 0 5.75 2.578 5.75 5.747 0 1.68-2.11 4.993-5.506 8.647a.326.326 0 01-.244.107.326.326 0 01-.244-.107c-3.396-3.654-5.506-6.967-5.506-8.646 0-3.17 2.58-5.748 5.75-5.748zM90.503 94.725c-.874 0-1.584-.71-1.584-1.583s.71-1.584 1.584-1.584c.873 0 1.583.71 1.583 1.584 0 .873-.71 1.583-1.584 1.583zm-18.308 16.143a4.067 4.067 0 01-4.063-4.062 4.067 4.067 0 014.063-4.062 4.067 4.067 0 014.064 4.062 4.067 4.067 0 01-4.064 4.062zm24.373-2.479c-.873 0-1.583-.71-1.583-1.583a1.585 1.585 0 013.167 0c0 .873-.71 1.583-1.584 1.583z"/><path d="M106.536 73.964c-.034-.768-.623-1.418-1.418-1.418-.742 0-1.452.652-1.418 1.418.034.769.623 1.418 1.418 1.418.742 0 1.453-.652 1.418-1.418z"/></g><defs><clipPath id="clip0"><path fill="#fff" transform="translate(65.295 65.295)" d="M0 0h48.409v48.409H0z"/></clipPath></defs></svg>