<svg width="35" height="35" viewBox="0 0 35 35" fill="none" xmlns="http://www.w3.org/2000/svg"><path d="M17.5 12.943a4.566 4.566 0 00-4.557 4.557 4.566 4.566 0 004.556 4.556 4.566 4.566 0 004.556-4.556 4.566 4.566 0 00-4.556-4.557zM31.163 17.5c0-1.887.017-3.757-.089-5.64-.106-2.188-.605-4.129-2.204-5.729-1.603-1.603-3.541-2.098-5.729-2.204-1.887-.106-3.756-.09-5.64-.09-1.886 0-3.756-.016-5.64.09-2.187.106-4.128.605-5.728 2.204C4.531 7.734 4.036 9.672 3.93 11.86c-.106 1.887-.09 3.756-.09 5.64 0 1.883-.016 3.756.09 5.64.106 2.187.605 4.128 2.204 5.728 1.603 1.603 3.541 2.098 5.729 2.204 1.887.106 3.756.09 5.64.09 1.886 0 3.756.016 5.64-.09 2.187-.106 4.128-.605 5.728-2.204 1.603-1.603 2.098-3.541 2.204-5.729.11-1.883.09-3.753.09-5.64zM17.5 24.51a7 7 0 01-7.01-7.01 7 7 0 017.01-7.01 7 7 0 017.01 7.01 7 7 0 01-7.01 7.01zm7.297-12.67a1.635 1.635 0 01-1.637-1.638c0-.906.732-1.637 1.637-1.637a1.635 1.635 0 011.514 2.264 1.635 1.635 0 01-1.514 1.01z" fill="#fff"/></svg>