<svg width="44" height="44" viewBox="0 0 44 44" fill="none" xmlns="http://www.w3.org/2000/svg"><rect x=".945" y=".5" width="42.556" height="42.556" rx="19.5" fill="#fff" stroke="#fff"/><path d="M29.276 23.16c-.338-.665-1.294-1.225-2.565-.28-1.73 1.33-4.488 1.33-4.488 1.33s-2.759 0-4.489-1.33c-1.27-.945-2.226-.385-2.565.28-.605 1.166.073 1.738 1.61 2.683 1.318.817 3.12 1.12 4.282 1.237l-.968.933c-1.379 1.318-2.71 2.59-3.617 3.477-.545.536-.545 1.388 0 1.89l.17.186a1.445 1.445 0 001.983 0l3.594-3.476c1.391 1.318 2.71 2.59 3.63 3.476a1.447 1.447 0 001.983 0l.158-.186c.556-.502.556-1.354 0-1.89l-3.606-3.477-.955-.945c1.149-.105 2.927-.42 4.234-1.225 1.537-.945 2.214-1.517 1.61-2.683zm-7.053-9.532c1.67 0 3.024 1.307 3.024 2.905 0 1.61-1.355 2.905-3.024 2.905-1.67 0-3.025-1.295-3.025-2.905 0-1.598 1.355-2.905 3.025-2.905zm0 8.808c3.387 0 6.122-2.636 6.122-5.903a5.798 5.798 0 00-1.793-4.174 6.239 6.239 0 00-4.33-1.73 6.24 6.24 0 00-4.328 1.73 5.798 5.798 0 00-1.793 4.174c0 3.267 2.734 5.903 6.122 5.903z" fill="#011B2B"/></svg>