<svg width="44" height="44" viewBox="0 0 44 44" fill="none" xmlns="http://www.w3.org/2000/svg"><rect x=".611" y=".5" width="42.556" height="42.556" rx="19.5" fill="#fff" stroke="#fff"/><path fill-rule="evenodd" clip-rule="evenodd" d="M20.931 30.21h1.576s.473-.073.71-.291c.236-.218.236-.654.236-.654s0-1.887.946-2.177c.946-.29 2.207 1.887 3.468 2.686.946.653 1.655.508 1.655.508l3.468-.073s1.813-.072.946-1.452c-.08-.072-.473-.943-2.601-2.758-2.207-1.888-1.892-1.525.709-4.791 1.576-1.96 2.207-3.122 2.05-3.702-.158-.509-1.34-.364-1.34-.364h-3.941s-.316-.072-.473.073c-.237.145-.316.363-.316.363s-.63 1.524-1.418 2.831c-1.734 2.686-2.444 2.831-2.68 2.686-.63-.363-.473-1.597-.473-2.395 0-2.614.473-3.703-.867-3.993-.394-.073-.71-.145-1.813-.145-1.418 0-2.6 0-3.23.29-.474.218-.79.654-.553.654s.867.145 1.183.508c.315.653.315 1.742.315 1.742s.236 3.121-.552 3.484c-.552.29-1.26-.29-2.837-2.758-.788-1.234-1.419-2.686-1.419-2.686s-.079-.29-.315-.436c-.237-.145-.63-.218-.63-.218H9.03s-.552 0-.788.218c-.158.218 0 .581 0 .581s2.916 6.243 6.226 9.437c3.074 3.049 6.463 2.831 6.463 2.831z" fill="#011B2B"/></svg>