<svg width="45" height="41" viewBox="0 0 45 41" fill="none" xmlns="http://www.w3.org/2000/svg"><path fill-rule="evenodd" clip-rule="evenodd" d="M22.59 29.438h1.8s.54-.082.81-.328c.27-.247.27-.738.27-.738s0-2.133 1.08-2.46c1.08-.328 2.52 2.132 3.96 3.034 1.08.737 1.89.573 1.89.573l3.96-.081s2.07-.082 1.08-1.64c-.09-.082-.54-1.066-2.97-3.116-2.52-2.133-2.16-1.723.81-5.412 1.8-2.215 2.52-3.527 2.34-4.182-.18-.574-1.53-.41-1.53-.41h-4.5s-.36-.083-.54.081c-.27.165-.36.41-.36.41s-.72 1.723-1.62 3.198c-1.98 3.034-2.79 3.198-3.06 3.034-.72-.41-.54-1.803-.54-2.706 0-2.952.54-4.181-.99-4.51-.45-.082-.81-.164-2.07-.164-1.62 0-2.97 0-3.69.329-.54.245-.9.738-.63.738s.99.164 1.35.574c.36.737.36 1.967.36 1.967s.27 3.526-.63 3.936c-.63.328-1.44-.328-3.24-3.116-.9-1.394-1.62-3.034-1.62-3.034s-.09-.327-.36-.491c-.27-.165-.72-.246-.72-.246H9s-.63 0-.9.245c-.18.246 0 .656 0 .656s3.33 7.052 7.11 10.66c3.51 3.444 7.38 3.198 7.38 3.198z" fill="#fff"/></svg>