<svg width="33" height="32" viewBox="0 0 33 32" fill="none" xmlns="http://www.w3.org/2000/svg"><path d="M13.75 20l7.136-4-7.136-4v8zM29.645 9.56c.179.627.303 1.467.385 2.534.096 1.066.137 1.986.137 2.786L30.25 16c0 2.92-.22 5.067-.605 6.44-.344 1.2-1.141 1.974-2.379 2.307-.646.173-1.828.293-3.643.373a94.429 94.429 0 01-4.937.134l-2.186.08c-5.761 0-9.35-.214-10.766-.587-1.238-.333-2.035-1.107-2.379-2.307-.179-.626-.302-1.466-.385-2.533a31.117 31.117 0 01-.138-2.787L2.75 16c0-2.92.22-5.066.605-6.44.344-1.2 1.141-1.973 2.379-2.306.646-.174 1.829-.294 3.643-.374a94.495 94.495 0 014.937-.133l2.186-.08c5.761 0 9.35.213 10.766.587 1.238.333 2.035 1.106 2.379 2.306z" fill="#fff"/></svg>