<svg width="181" height="181" viewBox="0 0 181 181" fill="none" xmlns="http://www.w3.org/2000/svg">
<path d="M116.891 105.583H110.933L108.822 103.547C116.468 94.6782 120.67 83.3557 120.662 71.6458C120.662 58.6447 115.497 46.1761 106.304 36.9829C97.111 27.7897 84.6424 22.625 71.6413 22.625C45.8488 22.625 24.7321 42.535 22.8467 67.875H38.0808C39.9663 50.9062 54.1446 37.7083 71.6413 37.7083C90.42 37.7083 105.579 52.8671 105.579 71.6458C105.579 90.4246 90.42 105.583 71.6413 105.583C70.3592 105.583 69.1525 105.357 67.8704 105.206V120.44C69.1525 120.591 70.3592 120.667 71.6413 120.667C83.7833 120.667 94.945 116.217 103.543 108.826L105.579 110.938V116.896L143.287 154.529L154.524 143.292L116.891 105.583Z" fill="white"/>
<path d="M48.7969 81.6006L30.169 100.229L11.5411 81.6006L6.18652 86.9552L24.8144 105.583L6.18652 124.211L11.5411 129.566L30.169 110.938L48.7969 129.566L54.1515 124.211L35.5236 105.583L54.1515 86.9552L48.7969 81.6006Z" fill="white"/>
</svg>
