<svg width="181" height="181" viewBox="0 0 181 181" fill="none" xmlns="http://www.w3.org/2000/svg">
<path d="M161.393 56.5625C167.426 62.5959 167.426 72.4 161.393 77.6792L140.276 98.7959L81.4512 39.9709L102.568 18.8542C108.601 12.8209 118.405 12.8209 123.685 18.8542L137.26 32.4292L159.885 9.8042L170.443 20.3625L147.818 42.9875L161.393 56.5625ZM117.651 100.304L107.093 89.7459L85.9762 110.863L70.1387 95.025L91.2554 73.9084L80.6971 63.35L59.5804 84.4667L48.2679 73.9084L27.1512 95.025C21.1179 101.058 21.1179 110.863 27.1512 116.142L40.7262 129.717L10.5596 159.883L21.1179 170.442L51.2846 140.275L64.8596 153.85C70.8929 159.883 80.6971 159.883 85.9762 153.85L107.093 132.733L96.5346 122.175L117.651 100.304Z" fill="white"/>
</svg>
