<svg width="179" height="179" viewBox="0 0 179 179" fill="none" xmlns="http://www.w3.org/2000/svg">
<path d="M122.371 46.019H56.6298C50.7313 46.0255 45.9532 50.8052 45.9468 56.702V122.443C45.9532 128.34 50.7313 133.12 56.6298 133.126H122.371C128.268 133.12 133.048 128.34 133.054 122.443V56.702C133.048 50.8052 128.268 46.0255 122.371 46.019ZM128.124 122.443C128.119 125.618 125.546 128.193 122.371 128.196H56.6298C53.4534 128.193 50.8806 125.618 50.8774 122.443V56.702C50.8806 53.5257 53.4534 50.9529 56.6298 50.9497H122.371C125.546 50.9529 128.12 53.5257 128.124 56.702V122.443Z" fill="#599CC1"/>
<path d="M130.589 33.6924H48.4119C40.2456 33.702 33.6281 40.3179 33.6201 48.4842V130.661C33.6281 138.826 40.2456 145.443 48.4119 145.453H130.589C138.753 145.443 145.371 138.826 145.381 130.661V48.4842C145.371 40.3179 138.753 33.702 130.589 33.6924ZM140.45 130.661C140.444 136.105 136.031 140.516 130.589 140.522H48.4119C42.9677 140.516 38.5571 136.105 38.5507 130.661V48.4842C38.5555 43.04 42.9677 38.6294 48.4119 38.623H130.589C136.031 38.6294 140.444 43.04 140.45 48.4842V130.661Z" fill="#599CC1"/>
<path d="M98.3828 153.524C97.0201 153.524 95.9175 154.629 95.9175 155.99V176.534C95.9175 177.897 97.0201 178.999 98.3828 178.999C99.7438 178.999 100.848 177.897 100.848 176.534V155.99C100.848 154.629 99.7438 153.524 98.3828 153.524Z" fill="#599CC1"/>
<path d="M80.6181 153.524C79.2555 153.524 78.1528 154.629 78.1528 155.99V176.534C78.1528 177.897 79.2555 178.999 80.6181 178.999C81.9792 178.999 83.0835 177.897 83.0835 176.534V155.99C83.0835 154.629 81.9792 153.524 80.6181 153.524Z" fill="#599CC1"/>
<path d="M62.854 153.524C61.4929 153.524 60.3887 154.629 60.3887 155.99V176.534C60.3887 177.897 61.4929 178.999 62.854 178.999C64.215 178.999 65.3193 177.897 65.3193 176.534V155.99C65.3193 154.629 64.215 153.524 62.854 153.524Z" fill="#599CC1"/>
<path d="M116.147 153.524C114.784 153.524 113.682 154.629 113.682 155.99V176.534C113.682 177.897 114.784 178.999 116.147 178.999C117.508 178.999 118.612 177.897 118.612 176.534V155.99C118.612 154.629 117.508 153.524 116.147 153.524Z" fill="#599CC1"/>
<path d="M83.0835 23.0095V2.4653C83.0835 1.10425 81.9792 0 80.6181 0C79.2555 0 78.1528 1.10425 78.1528 2.4653V23.0095C78.1528 24.3706 79.2555 25.4748 80.6181 25.4748C81.9792 25.4748 83.0835 24.3706 83.0835 23.0095Z" fill="#599CC1"/>
<path d="M100.848 23.0095V2.4653C100.848 1.10425 99.7438 0 98.3828 0C97.0201 0 95.9175 1.10425 95.9175 2.4653V23.0095C95.9175 24.3706 97.0201 25.4748 98.3828 25.4748C99.7438 25.4748 100.848 24.3706 100.848 23.0095Z" fill="#599CC1"/>
<path d="M118.612 23.0095V2.4653C118.612 1.10425 117.508 0 116.147 0C114.784 0 113.682 1.10425 113.682 2.4653V23.0095C113.682 24.3706 114.784 25.4748 116.147 25.4748C117.508 25.4748 118.612 24.3706 118.612 23.0095Z" fill="#599CC1"/>
<path d="M65.3193 23.0095V2.4653C65.3193 1.10425 64.215 0 62.854 0C61.4929 0 60.3887 1.10425 60.3887 2.4653V23.0095C60.3887 24.3706 61.4929 25.4748 62.854 25.4748C64.215 25.4748 65.3193 24.3706 65.3193 23.0095Z" fill="#599CC1"/>
<path d="M176.534 78.1528H155.99C154.629 78.1528 153.524 79.2555 153.524 80.6181C153.524 81.9792 154.629 83.0835 155.99 83.0835H176.534C177.897 83.0835 178.999 81.9792 178.999 80.6181C178.999 79.2555 177.897 78.1528 176.534 78.1528Z" fill="#599CC1"/>
<path d="M176.534 95.9175H155.99C154.629 95.9175 153.524 97.0201 153.524 98.3828C153.524 99.7438 154.629 100.848 155.99 100.848H176.534C177.897 100.848 178.999 99.7438 178.999 98.3828C178.999 97.0201 177.897 95.9175 176.534 95.9175Z" fill="#599CC1"/>
<path d="M176.534 113.682H155.99C154.629 113.682 153.524 114.784 153.524 116.147C153.524 117.508 154.629 118.612 155.99 118.612H176.534C177.897 118.612 178.999 117.508 178.999 116.147C178.999 114.784 177.897 113.682 176.534 113.682Z" fill="#599CC1"/>
<path d="M176.534 60.3887H155.99C154.629 60.3887 153.524 61.4929 153.524 62.854C153.524 64.215 154.629 65.3193 155.99 65.3193H176.534C177.897 65.3193 178.999 64.215 178.999 62.854C178.999 61.4929 177.897 60.3887 176.534 60.3887Z" fill="#599CC1"/>
<path d="M23.0095 95.9175H2.4653C1.10425 95.9175 0 97.0201 0 98.3828C0 99.7438 1.10425 100.848 2.4653 100.848H23.0095C24.3706 100.848 25.4748 99.7438 25.4748 98.3828C25.4748 97.0201 24.3706 95.9175 23.0095 95.9175Z" fill="#599CC1"/>
<path d="M23.0095 78.1528H2.4653C1.10425 78.1528 0 79.2555 0 80.6181C0 81.9792 1.10425 83.0835 2.4653 83.0835H23.0095C24.3706 83.0835 25.4748 81.9792 25.4748 80.6181C25.4748 79.2555 24.3706 78.1528 23.0095 78.1528Z" fill="#599CC1"/>
<path d="M23.0095 60.3887H2.4653C1.10425 60.3887 0 61.4929 0 62.854C0 64.215 1.10425 65.3193 2.4653 65.3193H23.0095C24.3706 65.3193 25.4748 64.215 25.4748 62.854C25.4748 61.4929 24.3706 60.3887 23.0095 60.3887Z" fill="#599CC1"/>
<path d="M23.0095 113.682H2.4653C1.10425 113.682 0 114.784 0 116.147C0 117.508 1.10425 118.612 2.4653 118.612H23.0095C24.3706 118.612 25.4748 117.508 25.4748 116.147C25.4748 114.784 24.3706 113.682 23.0095 113.682Z" fill="#599CC1"/>
<g clip-path="url(#clip0)">
<path d="M105.454 91.7234H94.6874C94.095 89.9802 92.4435 88.722 90.5025 88.722C88.5615 88.722 86.91 89.9802 86.3176 91.7234H78.4493C76.7242 91.7234 75.3209 90.32 75.3209 88.595C75.3209 86.8715 76.7231 85.4692 78.4466 85.4692H105.118C105.996 85.4692 106.842 85.1002 107.44 84.4568C110.298 81.3819 113.704 77.0509 113.704 73.8795C113.704 69.1462 109.852 65.2954 105.118 65.2954C100.384 65.2954 96.5319 69.1462 96.5319 73.8795C96.5319 76.4632 98.7926 79.8162 101.176 82.6329H78.4466C75.1591 82.6329 72.4844 85.3075 72.4844 88.5951C72.4844 91.8841 75.1602 94.5599 78.4493 94.5599H86.3176C86.91 96.303 88.5615 97.5613 90.5025 97.5613C92.4435 97.5613 94.095 96.303 94.6874 94.5599H105.454C108.439 94.5599 110.868 96.9886 110.868 99.9739C110.868 102.959 108.439 105.388 105.454 105.388H100.753C100.161 103.645 98.5094 102.386 96.5684 102.386C94.6275 102.386 92.976 103.645 92.3835 105.388H78.9475C78.2916 102.262 75.5134 99.9079 72.1951 99.9079C68.3906 99.9079 65.2954 103.002 65.2954 106.806C65.2954 110.61 68.3906 113.704 72.1952 113.704C75.5135 113.704 78.2916 111.35 78.9476 108.224H92.3835C92.976 109.967 94.6275 111.226 96.5684 111.226C98.5094 111.226 100.161 109.967 100.753 108.224H105.454C110.003 108.224 113.704 104.523 113.704 99.9739C113.704 95.4246 110.003 91.7234 105.454 91.7234ZM105.118 68.1319C108.288 68.1319 110.868 70.7103 110.868 73.8795C110.868 75.5588 108.758 78.8719 105.362 82.5259C105.28 82.6143 105.184 82.6329 105.118 82.6329C105.052 82.6329 104.956 82.6143 104.874 82.5259C101.478 78.872 99.3683 75.5589 99.3683 73.8796C99.3684 70.7103 101.948 68.1319 105.118 68.1319ZM90.5025 94.7248C89.6295 94.7248 88.9193 94.0146 88.9193 93.1416C88.9193 92.2687 89.6295 91.5584 90.5025 91.5584C91.3755 91.5584 92.0857 92.2687 92.0857 93.1416C92.0857 94.0146 91.3756 94.7248 90.5025 94.7248ZM72.1952 110.868C69.9547 110.868 68.1319 109.046 68.1319 106.806C68.1319 104.566 69.9547 102.744 72.1952 102.744C74.4357 102.744 76.2585 104.566 76.2585 106.806C76.2585 109.046 74.4357 110.868 72.1952 110.868ZM96.5684 108.389C95.6955 108.389 94.9852 107.679 94.9852 106.806C94.9852 105.933 95.6955 105.223 96.5684 105.223C97.4414 105.223 98.1517 105.933 98.1517 106.806C98.1517 107.679 97.4415 108.389 96.5684 108.389Z" fill="#599CC1"/>
<path d="M106.536 73.9641C106.502 73.1957 105.913 72.5459 105.118 72.5459C104.376 72.5459 103.666 73.1982 103.7 73.9641C103.734 74.7325 104.323 75.3824 105.118 75.3824C105.86 75.3824 106.571 74.7301 106.536 73.9641Z" fill="#599CC1"/>
</g>
<defs>
<clipPath id="clip0">
<rect width="48.4088" height="48.4088" fill="white" transform="translate(65.2954 65.2954)"/>
</clipPath>
</defs>
</svg>
