<svg width="164" height="164" viewBox="0 0 164 164" fill="none" xmlns="http://www.w3.org/2000/svg">
<path d="M156.973 28.2744L118.535 18.0244C118.088 17.9045 117.616 17.9086 117.171 18.0363L82 28.0851L69.2314 24.4374C69.0142 23.9838 68.7861 23.5344 68.5401 23.0921C66.4197 19.2177 63.3251 15.9637 59.562 13.6514C55.799 11.3392 51.4978 10.0488 47.0834 9.9077C46.4469 9.88624 45.8037 9.88624 45.166 9.9077C40.7517 10.0489 36.4505 11.3394 32.6876 13.6517C28.9247 15.964 25.8302 19.2181 23.7099 23.0924C23.5527 23.3747 23.4016 23.6596 23.2566 23.947L7.02734 28.2744C6.48181 28.4199 5.99959 28.7414 5.65559 29.1891C5.31159 29.6368 5.12507 30.1855 5.125 30.7501V133.25C5.12503 133.643 5.21537 134.03 5.38902 134.383C5.56268 134.735 5.81501 135.043 6.12651 135.282C6.43802 135.521 6.80036 135.686 7.18555 135.763C7.57074 135.84 7.96846 135.827 8.34798 135.726L46.1013 125.659L81.2953 135.714C81.7548 135.848 82.2432 135.845 82.7015 135.708L82.7034 135.714L117.898 125.659L155.652 135.726C156.032 135.827 156.429 135.84 156.815 135.763C157.2 135.686 157.562 135.522 157.874 135.282C158.185 135.043 158.437 134.735 158.611 134.383C158.785 134.031 158.875 133.643 158.875 133.25V30.7501C158.875 30.1856 158.688 29.6368 158.345 29.1892C158.001 28.7415 157.518 28.4199 156.973 28.2744ZM84.5625 96.985C84.9319 96.7554 85.2366 96.4355 85.4479 96.0553C85.6592 95.6752 85.7701 95.2475 85.7701 94.8126C85.7701 94.3777 85.6592 93.95 85.4479 93.5699C85.2366 93.1898 84.9319 92.8698 84.5625 92.6402V32.6832L115.312 23.897V42.2112C113.075 42.9514 111.128 44.3781 109.748 46.2883C108.368 48.1985 107.625 50.4951 107.625 52.8517C107.625 55.2082 108.368 57.5049 109.748 59.4151C111.128 61.3253 113.075 62.7519 115.312 63.4921V87.3352C113.129 87.7042 111.051 88.542 109.222 89.7907C106.709 91.5021 104.759 93.9205 103.62 96.7399C102.481 99.5593 102.203 102.653 102.822 105.63C103.441 108.608 104.93 111.334 107.098 113.466C109.267 115.597 112.019 117.037 115.007 117.605C115.109 117.624 115.211 117.637 115.312 117.655V121.067L84.5625 129.853V96.985ZM115.963 112.57C113.971 112.192 112.136 111.232 110.691 109.811C109.245 108.39 108.252 106.572 107.84 104.587C107.427 102.602 107.612 100.54 108.371 98.66C109.131 96.7803 110.431 95.1681 112.106 94.0272C113.5 93.0785 115.106 92.4881 116.782 92.3082C118.458 92.1284 120.152 92.3646 121.715 92.9961C123.278 93.6276 124.661 94.6347 125.742 95.9284C126.822 97.222 127.567 98.7622 127.911 100.413C128.254 102.063 128.185 103.772 127.709 105.39C127.234 107.007 126.367 108.482 125.186 109.684C124.004 110.886 122.545 111.779 120.936 112.282C119.327 112.785 117.619 112.884 115.963 112.57V112.57ZM118.836 58.9376C117.632 58.9376 116.456 58.5807 115.455 57.9119C114.454 57.2432 113.674 56.2927 113.213 55.1807C112.753 54.0686 112.632 52.8449 112.867 51.6644C113.102 50.4838 113.681 49.3994 114.533 48.5483C115.384 47.6971 116.468 47.1175 117.649 46.8827C118.829 46.6478 120.053 46.7684 121.165 47.229C122.277 47.6896 123.227 48.4697 123.896 49.4705C124.565 50.4713 124.922 51.648 124.922 52.8517C124.92 54.4652 124.278 56.0122 123.137 57.1531C121.996 58.2941 120.449 58.9358 118.836 58.9376ZM45.338 15.0298C45.5994 15.0213 45.8617 15.0169 46.125 15.0167C46.3883 15.0165 46.6503 15.0208 46.911 15.0298C50.4411 15.1452 53.8799 16.1795 56.8878 18.0306C59.8958 19.8817 62.3688 22.4855 64.0625 25.5848C67.9338 32.54 67.3617 41.3886 62.6038 48.1274L46.125 71.4692L29.6465 48.1274C24.8883 41.3886 24.3165 32.54 28.1875 25.5848C29.8811 22.4856 32.354 19.8819 35.3617 18.0308C38.3695 16.1797 41.8081 15.1453 45.338 15.0298ZM46.125 99.9376C44.9213 99.9376 43.7447 99.5807 42.7438 98.9119C41.743 98.2432 40.963 97.2927 40.5023 96.1807C40.0417 95.0686 39.9212 93.8449 40.156 92.6644C40.3908 91.4838 40.9705 90.3994 41.8216 89.5483C42.6727 88.6971 43.7571 88.1175 44.9377 87.8827C46.1183 87.6478 47.3419 87.7684 48.454 88.229C49.566 88.6896 50.5165 89.4697 51.1853 90.4705C51.854 91.4713 52.2109 92.648 52.2109 93.8517C52.2092 95.4652 51.5674 97.0122 50.4264 98.1531C49.2855 99.2941 47.7385 99.9358 46.125 99.9376ZM10.25 32.7188L21.1531 29.8116C20.3495 33.4616 20.3175 37.2392 21.0591 40.9023C21.8006 44.5654 23.2994 48.0332 25.4594 51.0832L43.5625 76.7258V82.9399C41.1018 83.5172 38.9084 84.9093 37.3385 86.8902C35.7685 88.8711 34.9142 91.3244 34.9142 93.852C34.9142 96.3796 35.7685 98.8329 37.3385 100.814C38.9084 102.795 41.1018 104.187 43.5625 104.764V121.032L10.25 129.915V32.7188ZM79.4375 129.855L48.6875 121.069V104.765C51.1482 104.188 53.3416 102.796 54.9115 100.815C56.4815 98.8339 57.3358 96.3805 57.3358 93.853C57.3358 91.3254 56.4815 88.872 54.9115 86.8912C53.3416 84.9103 51.1482 83.5182 48.6875 82.9409V76.7268L66.7906 51.0842C68.8979 48.1065 70.3762 44.7306 71.1353 41.1625C71.8944 37.5944 71.9182 33.9091 71.2055 30.3315L79.4375 32.6829V129.855ZM153.75 129.916L120.438 121.031V117.666C123.994 117.064 127.225 115.231 129.567 112.488C131.909 109.744 133.212 106.265 133.248 102.659C133.285 99.052 132.052 95.5473 129.766 92.7573C127.48 89.9674 124.286 88.0697 120.743 87.3961C120.641 87.3765 120.539 87.3641 120.438 87.3458V63.9463C123.104 63.5593 125.542 62.225 127.305 60.1876C129.068 58.1502 130.038 55.546 130.038 52.8517C130.038 50.1574 129.068 47.5532 127.305 45.5158C125.542 43.4784 123.104 42.144 120.438 41.757V23.8355L153.75 32.7188V129.916Z" fill="#599CC1"/>
<path d="M46.125 49.0483C48.3423 49.0483 50.5098 48.3908 52.3535 47.159C54.1971 45.9271 55.634 44.1762 56.4826 42.1276C57.3311 40.0791 57.5531 37.825 57.1205 35.6503C56.6879 33.4756 55.6202 31.478 54.0523 29.9101C52.4844 28.3422 50.4869 27.2745 48.3121 26.8419C46.1374 26.4093 43.8833 26.6313 41.8348 27.4799C39.7862 28.3284 38.0353 29.7653 36.8034 31.6089C35.5716 33.4526 34.9141 35.6201 34.9141 37.8374C34.9175 40.8097 36.0997 43.6593 38.2014 45.761C40.3031 47.8627 43.1527 49.045 46.125 49.0483ZM46.125 31.7515C47.3287 31.7515 48.5053 32.1084 49.5062 32.7771C50.507 33.4459 51.287 34.3964 51.7477 35.5084C52.2083 36.6205 52.3288 37.8442 52.094 39.0247C51.8592 40.2053 51.2795 41.2897 50.4284 42.1408C49.5773 42.9919 48.4929 43.5716 47.3123 43.8064C46.1317 44.0412 44.9081 43.9207 43.796 43.4601C42.684 42.9995 41.7335 42.2194 41.0647 41.2186C40.396 40.2177 40.0391 39.0411 40.0391 37.8374C40.0408 36.2239 40.6826 34.6769 41.8236 33.536C42.9645 32.395 44.5115 31.7532 46.125 31.7515Z" fill="#599CC1"/>
<path d="M92.3975 91.4784L92.2149 91.5841C91.6241 91.9201 91.1909 92.477 91.0107 93.1324C90.8305 93.7877 90.918 94.4878 91.254 95.0787C91.5899 95.6695 92.1469 96.1027 92.8022 96.2829C93.4576 96.4631 94.1577 96.3756 94.7486 96.0396C94.8703 95.9723 94.992 95.8987 95.1105 95.825C95.4036 95.6506 95.6589 95.4194 95.8615 95.145C96.0641 94.8706 96.2098 94.5585 96.2902 94.2271C96.3706 93.8956 96.384 93.5514 96.3297 93.2147C96.2753 92.878 96.1543 92.5555 95.9737 92.2662C95.7931 91.9769 95.5566 91.7265 95.278 91.5298C94.9994 91.3331 94.6843 91.1939 94.3512 91.1205C94.0181 91.0472 93.6737 91.041 93.3383 91.1025C93.0028 91.1639 92.6829 91.2917 92.3975 91.4784Z" fill="#599CC1"/>
<path d="M97.375 70.8242C96.6954 70.8242 96.0436 71.0942 95.563 71.5748C95.0825 72.0553 94.8125 72.7071 94.8125 73.3867V73.7038C94.8125 74.3834 95.0825 75.0352 95.563 75.5158C96.0436 75.9963 96.6954 76.2663 97.375 76.2663C98.0546 76.2663 98.7064 75.9963 99.187 75.5158C99.6675 75.0352 99.9375 74.3834 99.9375 73.7038V73.3867C99.9375 72.7071 99.6675 72.0553 99.187 71.5748C98.7064 71.0942 98.0546 70.8242 97.375 70.8242Z" fill="#599CC1"/>
<path d="M97.375 81.5903C96.6954 81.5903 96.0436 81.8603 95.563 82.3409C95.0825 82.8214 94.8125 83.4732 94.8125 84.1528V84.4699C94.8125 85.1496 95.0825 85.8013 95.563 86.2819C96.0436 86.7625 96.6954 87.0324 97.375 87.0324C98.0546 87.0324 98.7064 86.7625 99.187 86.2819C99.6675 85.8013 99.9375 85.1496 99.9375 84.4699V84.1528C99.9375 83.4732 99.6675 82.8214 99.187 82.3409C98.7064 81.8603 98.0546 81.5903 97.375 81.5903Z" fill="#599CC1"/>
<path d="M103.461 56.6282C103.791 56.5319 104.098 56.3704 104.363 56.1531C104.629 55.9359 104.849 55.6675 105.009 55.3638C105.169 55.0601 105.267 54.7272 105.296 54.3851C105.325 54.0429 105.285 53.6985 105.178 53.3721C105.071 53.0457 104.9 52.7441 104.675 52.4852C104.449 52.2263 104.174 52.0154 103.865 51.8649C103.556 51.7145 103.221 51.6277 102.878 51.6095C102.535 51.5914 102.192 51.6424 101.869 51.7594C101.735 51.8011 101.6 51.8491 101.469 51.8972C100.905 52.1066 100.432 52.5078 100.134 53.0307C99.8361 53.5535 99.7316 54.1645 99.839 54.7566C99.9463 55.3487 100.259 55.8842 100.721 56.2691C101.184 56.6541 101.767 56.864 102.369 56.862C102.675 56.8607 102.979 56.8054 103.266 56.6986C103.33 56.673 103.397 56.6506 103.461 56.6282Z" fill="#599CC1"/>
<path d="M97.375 60.0586C96.6954 60.0586 96.0436 60.3286 95.563 60.8091C95.0825 61.2897 94.8125 61.9415 94.8125 62.6211V62.9382C94.8125 63.6178 95.0825 64.2696 95.563 64.7502C96.0436 65.2307 96.6954 65.5007 97.375 65.5007C98.0546 65.5007 98.7064 65.2307 99.187 64.7502C99.6675 64.2696 99.9375 63.6178 99.9375 62.9382V62.6211C99.9375 61.9415 99.6675 61.2897 99.187 60.8091C98.7064 60.3286 98.0546 60.0586 97.375 60.0586Z" fill="#599CC1"/>
<path d="M61.676 92.25H61.3589C60.6793 92.25 60.0275 92.52 59.5469 93.0005C59.0664 93.4811 58.7964 94.1329 58.7964 94.8125C58.7964 95.4921 59.0664 96.1439 59.5469 96.6245C60.0275 97.105 60.6793 97.375 61.3589 97.375H61.676C62.3556 97.375 63.0074 97.105 63.488 96.6245C63.9685 96.1439 64.2385 95.4921 64.2385 94.8125C64.2385 94.1329 63.9685 93.4811 63.488 93.0005C63.0074 92.52 62.3556 92.25 61.676 92.25Z" fill="#599CC1"/>
<path d="M134.605 56.375H134.922C135.602 56.375 136.253 56.105 136.734 55.6245C137.215 55.1439 137.485 54.4921 137.485 53.8125C137.485 53.1329 137.215 52.4811 136.734 52.0005C136.253 51.52 135.602 51.25 134.922 51.25H134.605C133.925 51.25 133.274 51.52 132.793 52.0005C132.312 52.4811 132.042 53.1329 132.042 53.8125C132.042 54.4921 132.312 55.1439 132.793 55.6245C133.274 56.105 133.925 56.375 134.605 56.375Z" fill="#599CC1"/>
<path d="M145.371 56.375H145.688C146.367 56.375 147.019 56.105 147.5 55.6245C147.98 55.1439 148.25 54.4921 148.25 53.8125C148.25 53.1329 147.98 52.4811 147.5 52.0005C147.019 51.52 146.367 51.25 145.688 51.25H145.371C144.691 51.25 144.039 51.52 143.559 52.0005C143.078 52.4811 142.808 53.1329 142.808 53.8125C142.808 54.4921 143.078 55.1439 143.559 55.6245C144.039 56.105 144.691 56.375 145.371 56.375Z" fill="#599CC1"/>
<path d="M69.5625 94.8125C69.5625 95.4921 69.8325 96.1439 70.313 96.6245C70.7936 97.105 71.4454 97.375 72.125 97.375H72.4421C73.1217 97.375 73.7735 97.105 74.2541 96.6245C74.7346 96.1439 75.0046 95.4921 75.0046 94.8125C75.0046 94.1329 74.7346 93.4811 74.2541 93.0005C73.7735 92.52 73.1217 92.25 72.4421 92.25H72.125C71.4454 92.25 70.7936 92.52 70.313 93.0005C69.8325 93.4811 69.5625 94.1329 69.5625 94.8125Z" fill="#599CC1"/>
<path d="M29.3791 92.25H29.062C28.3824 92.25 27.7306 92.52 27.25 93.0005C26.7695 93.4811 26.4995 94.1329 26.4995 94.8125C26.4995 95.4921 26.7695 96.1439 27.25 96.6245C27.7306 97.105 28.3824 97.375 29.062 97.375H29.3791C30.0587 97.375 30.7105 97.105 31.1911 96.6245C31.6716 96.1439 31.9416 95.4921 31.9416 94.8125C31.9416 94.1329 31.6716 93.4811 31.1911 93.0005C30.7105 92.52 30.0587 92.25 29.3791 92.25Z" fill="#599CC1"/>
<path d="M18.6135 92.25H18.2964C17.6168 92.25 16.965 92.52 16.4844 93.0005C16.0039 93.4811 15.7339 94.1329 15.7339 94.8125C15.7339 95.4921 16.0039 96.1439 16.4844 96.6245C16.965 97.105 17.6168 97.375 18.2964 97.375H18.6135C19.2931 97.375 19.9449 97.105 20.4255 96.6245C20.906 96.1439 21.176 95.4921 21.176 94.8125C21.176 94.1329 20.906 93.4811 20.4255 93.0005C19.9449 92.52 19.2931 92.25 18.6135 92.25Z" fill="#599CC1"/>
<path d="M124.23 98.1738C123.995 97.8285 123.679 97.5459 123.31 97.3505C122.941 97.1551 122.529 97.0529 122.112 97.0527H122.086L112.848 97.1427C112.168 97.146 111.517 97.4191 111.039 97.902C110.561 98.3849 110.294 99.038 110.297 99.7176C110.301 100.397 110.574 101.048 111.057 101.526C111.54 102.004 112.193 102.271 112.872 102.268H112.898L118.293 102.215L116.267 107.216C116.137 107.528 116.07 107.863 116.07 108.202C116.07 108.54 116.137 108.876 116.268 109.188C116.398 109.5 116.589 109.784 116.83 110.022C117.071 110.26 117.356 110.448 117.67 110.575C117.984 110.702 118.32 110.766 118.658 110.763C118.997 110.759 119.331 110.689 119.642 110.555C119.953 110.422 120.235 110.228 120.471 109.985C120.707 109.742 120.892 109.455 121.016 109.14L124.486 100.578C124.645 100.187 124.704 99.7634 124.659 99.3439C124.615 98.9244 124.467 98.5225 124.23 98.1738Z" fill="#599CC1"/>
</svg>
