<svg width="35" height="35" viewBox="0 0 35 35" fill="none" xmlns="http://www.w3.org/2000/svg">
<path d="M17.4991 12.9434C14.9903 12.9434 12.9429 14.9908 12.9429 17.4996C12.9429 20.0083 14.9903 22.0557 17.4991 22.0557C20.0079 22.0557 22.0552 20.0083 22.0552 17.4996C22.0552 14.9908 20.0079 12.9434 17.4991 12.9434ZM31.1641 17.4996C31.1641 15.6128 31.1812 13.7432 31.0752 11.8599C30.9693 9.6724 30.4703 7.731 28.8706 6.13139C27.2676 4.52836 25.3296 4.03275 23.1421 3.9268C21.2554 3.82084 19.3858 3.83793 17.5025 3.83793C15.6158 3.83793 13.7461 3.82084 11.8628 3.9268C9.67533 4.03275 7.73393 4.53178 6.13432 6.13139C4.53129 7.73442 4.03568 9.6724 3.92973 11.8599C3.82377 13.7466 3.84086 15.6163 3.84086 17.4996C3.84086 19.3829 3.82377 21.2559 3.92973 23.1392C4.03568 25.3267 4.53471 27.2681 6.13432 28.8677C7.73734 30.4707 9.67533 30.9664 11.8628 31.0723C13.7496 31.1783 15.6192 31.1612 17.5025 31.1612C19.3892 31.1612 21.2588 31.1783 23.1421 31.0723C25.3296 30.9664 27.271 30.4673 28.8706 28.8677C30.4737 27.2647 30.9693 25.3267 31.0752 23.1392C31.1846 21.2559 31.1641 19.3863 31.1641 17.4996ZM17.4991 24.5098C13.6197 24.5098 10.4888 21.3789 10.4888 17.4996C10.4888 13.6202 13.6197 10.4893 17.4991 10.4893C21.3785 10.4893 24.5093 13.6202 24.5093 17.4996C24.5093 21.3789 21.3785 24.5098 17.4991 24.5098ZM24.7964 11.8394C23.8907 11.8394 23.1592 11.108 23.1592 10.2022C23.1592 9.29643 23.8907 8.56498 24.7964 8.56498C25.7022 8.56498 26.4336 9.29643 26.4336 10.2022C26.4339 10.4173 26.3917 10.6303 26.3096 10.829C26.2274 11.0278 26.1068 11.2084 25.9547 11.3605C25.8026 11.5126 25.622 11.6331 25.4233 11.7153C25.2245 11.7975 25.0115 11.8397 24.7964 11.8394Z" fill="white"/>
</svg>
