<svg width="44" height="44" viewBox="0 0 44 44" fill="none" xmlns="http://www.w3.org/2000/svg">
<rect x="0.832031" y="0.5" width="42.5555" height="42.5555" rx="19.5" fill="white" stroke="white"/>
<path d="M21.9968 17.9983C19.7933 17.9983 17.9951 19.7965 17.9951 22C17.9951 24.2035 19.7933 26.0017 21.9968 26.0017C24.2002 26.0017 25.9984 24.2035 25.9984 22C25.9984 19.7965 24.2002 17.9983 21.9968 17.9983ZM33.9987 22C33.9987 20.3429 34.0137 18.7008 33.9206 17.0467C33.8275 15.1254 33.3893 13.4202 31.9843 12.0153C30.5764 10.6073 28.8743 10.172 26.953 10.0789C25.2959 9.98588 23.6539 10.0009 21.9998 10.0009C20.3427 10.0009 18.7006 9.98588 17.0465 10.0789C15.1253 10.172 13.4201 10.6103 12.0152 12.0153C10.6073 13.4232 10.172 15.1254 10.0789 17.0467C9.98588 18.7038 10.0009 20.3459 10.0009 22C10.0009 23.6541 9.98588 25.2992 10.0789 26.9533C10.172 28.8746 10.6103 30.5798 12.0152 31.9847C13.4231 33.3927 15.1253 33.828 17.0465 33.9211C18.7036 34.0141 20.3457 33.9991 21.9998 33.9991C23.6569 33.9991 25.2989 34.0141 26.953 33.9211C28.8743 33.828 30.5794 33.3897 31.9843 31.9847C33.3923 30.5768 33.8275 28.8746 33.9206 26.9533C34.0167 25.2992 33.9987 23.6571 33.9987 22ZM21.9968 28.1572C18.5895 28.1572 15.8397 25.4073 15.8397 22C15.8397 18.5927 18.5895 15.8428 21.9968 15.8428C25.404 15.8428 28.1538 18.5927 28.1538 22C28.1538 25.4073 25.404 28.1572 21.9968 28.1572ZM28.406 17.0286C27.6105 17.0286 26.968 16.3862 26.968 15.5907C26.968 14.7951 27.6105 14.1527 28.406 14.1527C29.2015 14.1527 29.8439 14.7951 29.8439 15.5907C29.8442 15.7796 29.8071 15.9667 29.735 16.1412C29.6628 16.3158 29.5569 16.4744 29.4233 16.608C29.2897 16.7416 29.1311 16.8475 28.9565 16.9197C28.782 16.9918 28.5949 17.0289 28.406 17.0286Z" fill="#011B2B"/>
</svg>
