<svg width="33" height="33" viewBox="0 0 33 33" fill="none" xmlns="http://www.w3.org/2000/svg">
<path d="M24.5168 17.5175C24.1318 16.7337 23.0456 16.0737 21.6018 17.1875C19.6356 18.755 16.5006 18.755 16.5006 18.755C16.5006 18.755 13.3656 18.755 11.3993 17.1875C9.95556 16.0737 8.86931 16.7337 8.48431 17.5175C7.79681 18.8925 8.56681 19.5662 10.3131 20.68C11.8118 21.6425 13.8606 22 15.1806 22.1375L14.0806 23.2375C12.5131 24.7913 11.0006 26.29 9.96931 27.335C9.35056 27.9675 9.35056 28.9713 9.96931 29.5625L10.1618 29.7825C10.7806 30.4012 11.7981 30.4012 12.4168 29.7825L16.5006 25.685C18.0818 27.2388 19.5806 28.7375 20.6256 29.7825C21.2443 30.4012 22.2481 30.4012 22.8806 29.7825L23.0593 29.5625C23.6918 28.9713 23.6918 27.9675 23.0593 27.335L18.9618 23.2375L17.8756 22.1238C19.1818 22 21.2031 21.6287 22.6881 20.68C24.4343 19.5662 25.2043 18.8925 24.5168 17.5175ZM16.5006 6.28375C18.3981 6.28375 19.9381 7.82375 19.9381 9.7075C19.9381 11.605 18.3981 13.1313 16.5006 13.1313C14.6031 13.1313 13.0631 11.605 13.0631 9.7075C13.0631 7.82375 14.6031 6.28375 16.5006 6.28375ZM16.5006 16.665C20.3506 16.665 23.4581 13.5575 23.4581 9.7075C23.4581 7.86226 22.725 6.09259 21.4203 4.7878C20.1155 3.48302 18.3458 2.75 16.5006 2.75C14.6553 2.75 12.8856 3.48302 11.5809 4.7878C10.2761 6.09259 9.54306 7.86226 9.54306 9.7075C9.54306 13.5575 12.6506 16.665 16.5006 16.665Z" fill="white"/>
</svg>
