<svg width="44" height="44" viewBox="0 0 44 44" fill="none" xmlns="http://www.w3.org/2000/svg">
<rect x="0.945312" y="0.5" width="42.5555" height="42.5555" rx="19.5" fill="white" stroke="white"/>
<path d="M29.2763 23.1596C28.9375 22.4946 27.9817 21.9346 26.7114 22.8796C24.9812 24.2096 22.2227 24.2096 22.2227 24.2096C22.2227 24.2096 19.4642 24.2096 17.7341 22.8796C16.4637 21.9346 15.5079 22.4946 15.1691 23.1596C14.5642 24.3263 15.2417 24.898 16.7783 25.843C18.097 26.6596 19.8998 26.963 21.0612 27.0796L20.0933 28.013C18.7141 29.3313 17.3832 30.603 16.4758 31.4896C15.9314 32.0263 15.9314 32.878 16.4758 33.3796L16.6452 33.5663C17.1896 34.0913 18.0849 34.0913 18.6294 33.5663L22.2227 30.0896C23.6141 31.408 24.9328 32.6796 25.8523 33.5663C26.3968 34.0913 27.28 34.0913 27.8365 33.5663L27.9938 33.3796C28.5504 32.878 28.5504 32.0263 27.9938 31.4896L24.3884 28.013L23.4326 27.068C24.582 26.963 26.3605 26.648 27.6672 25.843C29.2037 24.898 29.8812 24.3263 29.2763 23.1596ZM22.2227 13.628C23.8923 13.628 25.2474 14.9346 25.2474 16.533C25.2474 18.143 23.8923 19.438 22.2227 19.438C20.5531 19.438 19.198 18.143 19.198 16.533C19.198 14.9346 20.5531 13.628 22.2227 13.628ZM22.2227 22.4363C25.6104 22.4363 28.3447 19.7996 28.3447 16.533C28.3447 14.9673 27.6997 13.4658 26.5516 12.3587C25.4035 11.2516 23.8464 10.6296 22.2227 10.6296C20.5991 10.6296 19.0419 11.2516 17.8938 12.3587C16.7457 13.4658 16.1007 14.9673 16.1007 16.533C16.1007 19.7996 18.8351 22.4363 22.2227 22.4363Z" fill="#011B2B"/>
</svg>
