<svg width="44" height="44" viewBox="0 0 44 44" fill="none" xmlns="http://www.w3.org/2000/svg">
<rect x="0.611328" y="0.5" width="42.5555" height="42.5555" rx="19.5" fill="white" stroke="white"/>
<path fill-rule="evenodd" clip-rule="evenodd" d="M20.9311 30.2092H22.5074C22.5074 30.2092 22.9803 30.1366 23.2167 29.9188C23.4532 29.701 23.4532 29.2655 23.4532 29.2655C23.4532 29.2655 23.4532 27.3781 24.399 27.0877C25.3447 26.7973 26.6058 28.9751 27.8668 29.7736C28.8126 30.4269 29.5219 30.2818 29.5219 30.2818L32.9898 30.2092C32.9898 30.2092 34.8025 30.1366 33.9356 28.7573C33.8567 28.6847 33.4627 27.8136 31.3347 25.9988C29.1278 24.1114 29.4431 24.4744 32.044 21.2077C33.6203 19.2477 34.2508 18.0862 34.0932 17.5055C33.9356 16.9973 32.7533 17.1425 32.7533 17.1425H28.8126C28.8126 17.1425 28.4973 17.0699 28.3397 17.2151C28.1033 17.3603 28.0244 17.5781 28.0244 17.5781C28.0244 17.5781 27.3939 19.1025 26.6058 20.4092C24.8719 23.0951 24.1625 23.2403 23.9261 23.0951C23.2956 22.7321 23.4532 21.4981 23.4532 20.6995C23.4532 18.0862 23.9261 16.9973 22.5862 16.707C22.1922 16.6344 21.8769 16.5618 20.7735 16.5618C19.3548 16.5618 18.1726 16.5618 17.5421 16.8521C17.0692 17.0699 16.7539 17.5055 16.9904 17.5055C17.2268 17.5055 17.8573 17.6507 18.1726 18.0136C18.4879 18.667 18.4879 19.7558 18.4879 19.7558C18.4879 19.7558 18.7243 22.8773 17.9362 23.2403C17.3844 23.5307 16.6751 22.9499 15.0988 20.4818C14.3107 19.2477 13.6802 17.7958 13.6802 17.7958C13.6802 17.7958 13.6013 17.5055 13.3649 17.3603C13.1284 17.2151 12.7344 17.1425 12.7344 17.1425H9.03008C9.03008 17.1425 8.47838 17.1425 8.24193 17.3603C8.0843 17.5781 8.24193 17.941 8.24193 17.941C8.24193 17.941 11.1581 24.184 14.4683 27.3781C17.5421 30.4269 20.9311 30.2092 20.9311 30.2092Z" fill="#011B2B"/>
</svg>
