<svg width="45" height="41" viewBox="0 0 45 41" fill="none" xmlns="http://www.w3.org/2000/svg">
<path fill-rule="evenodd" clip-rule="evenodd" d="M22.5895 29.4375H24.3895C24.3895 29.4375 24.9295 29.3555 25.1995 29.1095C25.4695 28.8635 25.4695 28.3715 25.4695 28.3715C25.4695 28.3715 25.4695 26.2395 26.5495 25.9115C27.6295 25.5835 29.0695 28.0435 30.5095 28.9455C31.5895 29.6835 32.3995 29.5195 32.3995 29.5195L36.3595 29.4375C36.3595 29.4375 38.4295 29.3555 37.4395 27.7975C37.3495 27.7155 36.8995 26.7315 34.4695 24.6815C31.9495 22.5495 32.3095 22.9595 35.2795 19.2695C37.0795 17.0555 37.7995 15.7435 37.6195 15.0875C37.4395 14.5135 36.0895 14.6775 36.0895 14.6775H31.5895C31.5895 14.6775 31.2295 14.5955 31.0495 14.7595C30.7795 14.9235 30.6895 15.1695 30.6895 15.1695C30.6895 15.1695 29.9695 16.8915 29.0695 18.3675C27.0895 21.4015 26.2795 21.5655 26.0095 21.4015C25.2895 20.9915 25.4695 19.5975 25.4695 18.6955C25.4695 15.7435 26.0095 14.5135 24.4795 14.1855C24.0295 14.1035 23.6695 14.0215 22.4095 14.0215C20.7895 14.0215 19.4395 14.0215 18.7195 14.3495C18.1795 14.5955 17.8195 15.0875 18.0895 15.0875C18.3595 15.0875 19.0795 15.2515 19.4395 15.6615C19.7995 16.3995 19.7995 17.6295 19.7995 17.6295C19.7995 17.6295 20.0695 21.1555 19.1695 21.5655C18.5395 21.8935 17.7295 21.2375 15.9295 18.4495C15.0295 17.0555 14.3095 15.4155 14.3095 15.4155C14.3095 15.4155 14.2195 15.0875 13.9495 14.9235C13.6795 14.7595 13.2295 14.6775 13.2295 14.6775H8.99953C8.99953 14.6775 8.36953 14.6775 8.09953 14.9235C7.91953 15.1695 8.09953 15.5795 8.09953 15.5795C8.09953 15.5795 11.4295 22.6315 15.2095 26.2395C18.7195 29.6835 22.5895 29.4375 22.5895 29.4375Z" fill="white"/>
</svg>
