<svg width="33" height="32" viewBox="0 0 33 32" fill="none" xmlns="http://www.w3.org/2000/svg">
<path d="M13.75 20.0003L20.8863 16.0003L13.75 12.0003V20.0003ZM29.645 9.56033C29.8238 10.187 29.9475 11.027 30.03 12.0937C30.1263 13.1603 30.1675 14.0803 30.1675 14.8803L30.25 16.0003C30.25 18.9203 30.03 21.067 29.645 22.4403C29.3013 23.6403 28.5038 24.4137 27.2663 24.747C26.62 24.9203 25.4375 25.0403 23.6225 25.1203C21.835 25.2137 20.1988 25.2537 18.6863 25.2537L16.5 25.3337C10.7388 25.3337 7.15 25.1203 5.73375 24.747C4.49625 24.4137 3.69875 23.6403 3.355 22.4403C3.17625 21.8137 3.0525 20.9737 2.97 19.907C2.87375 18.8403 2.8325 17.9203 2.8325 17.1203L2.75 16.0003C2.75 13.0803 2.97 10.9337 3.355 9.56033C3.69875 8.36033 4.49625 7.58699 5.73375 7.25366C6.38 7.08033 7.5625 6.96033 9.3775 6.88033C11.165 6.78699 12.8013 6.74699 14.3138 6.74699L16.5 6.66699C22.2613 6.66699 25.85 6.88033 27.2663 7.25366C28.5038 7.58699 29.3013 8.36033 29.645 9.56033Z" fill="white"/>
</svg>
