<svg width="44" height="44" viewBox="0 0 44 44" fill="none" xmlns="http://www.w3.org/2000/svg">
<rect x="0.722656" y="0.5" width="42.5555" height="42.5555" rx="19.5" fill="white" stroke="white"/>
<path d="M19.5814 25.7963L25.8606 22.2963L19.5814 18.7963V25.7963ZM33.5675 16.6613C33.7248 17.2096 33.8337 17.9446 33.9063 18.878C33.991 19.8113 34.0273 20.6163 34.0273 21.3163L34.0999 22.2963C34.0999 24.8513 33.9063 26.7296 33.5675 27.9313C33.2651 28.9813 32.5633 29.658 31.4744 29.9496C30.9058 30.1013 29.8653 30.2063 28.2683 30.2763C26.6954 30.358 25.2557 30.393 23.9248 30.393L22.0011 30.463C16.9317 30.463 13.7739 30.2763 12.5278 29.9496C11.4389 29.658 10.7372 28.9813 10.4347 27.9313C10.2774 27.383 10.1685 26.648 10.0959 25.7146C10.0112 24.7813 9.97494 23.9763 9.97494 23.2763L9.90234 22.2963C9.90234 19.7413 10.0959 17.863 10.4347 16.6613C10.7372 15.6113 11.4389 14.9346 12.5278 14.643C13.0964 14.4913 14.1369 14.3863 15.7339 14.3163C17.3068 14.2346 18.7465 14.1996 20.0774 14.1996L22.0011 14.1296C27.0705 14.1296 30.2283 14.3163 31.4744 14.643C32.5633 14.9346 33.2651 15.6113 33.5675 16.6613Z" fill="#011B2B"/>
</svg>
