<svg width="181" height="181" viewBox="0 0 181 181" fill="none" xmlns="http://www.w3.org/2000/svg"><path d="M116.891 105.583h-5.958l-2.111-2.036a48.805 48.805 0 0011.84-31.901 49.022 49.022 0 00-49.02-49.021c-25.793 0-46.91 19.91-48.795 45.25H38.08c1.885-16.969 16.064-30.167 33.56-30.167 18.779 0 33.938 15.16 33.938 33.938 0 18.779-15.159 33.937-33.938 33.937-1.282 0-2.489-.226-3.77-.377v15.234c1.282.151 2.488.227 3.77.227 12.142 0 23.304-4.45 31.902-11.841l2.036 2.112v5.958l37.708 37.633 11.237-11.237-37.633-37.709z" fill="#fff"/><path d="M48.797 81.6l-18.628 18.63-18.628-18.629-5.354 5.354 18.627 18.628-18.627 18.628 5.354 5.355 18.628-18.628 18.628 18.628 5.355-5.355-18.628-18.628L54.15 86.955l-5.354-5.354z" fill="#fff"/></svg>