<svg width="181" height="181" viewBox="0 0 181 181" fill="none" xmlns="http://www.w3.org/2000/svg"><path d="M161.393 56.563c6.033 6.033 6.033 15.837 0 21.116l-21.117 21.117L81.451 39.97l21.117-21.117c6.033-6.033 15.837-6.033 21.117 0L137.26 32.43l22.625-22.625 10.558 10.559-22.625 22.624 13.575 13.575zm-43.742 43.741l-10.558-10.558-21.117 21.117L70.14 95.025l21.116-21.117L80.697 63.35 59.58 84.467 48.268 73.908 27.15 95.025c-6.033 6.033-6.033 15.838 0 21.117l13.575 13.575-30.166 30.166 10.558 10.559 30.167-30.167L64.86 153.85c6.033 6.033 15.837 6.033 21.116 0l21.117-21.117-10.558-10.558 21.116-21.871z" fill="#fff"/></svg>