<svg width="44" height="44" viewBox="0 0 44 44" fill="none" xmlns="http://www.w3.org/2000/svg"><rect x=".832" y=".5" width="42.556" height="42.556" rx="19.5" fill="#fff" stroke="#fff"/><path d="M21.997 17.998A4.01 4.01 0 0017.995 22a4.01 4.01 0 004.002 4.002A4.01 4.01 0 0025.998 22a4.01 4.01 0 00-4.001-4.002zM33.999 22c0-1.657.015-3.3-.078-4.953-.093-1.922-.532-3.627-1.937-5.032-1.408-1.408-3.11-1.843-5.031-1.936C25.296 9.986 23.653 10 22 10c-1.657 0-3.3-.015-4.953.078-1.922.093-3.627.531-5.032 1.936-1.408 1.408-1.843 3.11-1.936 5.032C9.986 18.704 10 20.346 10 22s-.015 3.3.078 4.953c.093 1.922.531 3.627 1.936 5.032 1.408 1.408 3.11 1.843 5.032 1.936 1.657.093 3.299.078 4.953.078 1.657 0 3.299.015 4.953-.078 1.921-.093 3.626-.531 5.031-1.936 1.408-1.408 1.843-3.11 1.937-5.032.096-1.654.078-3.296.078-4.953zm-12.002 6.157A6.148 6.148 0 0115.84 22a6.148 6.148 0 016.157-6.157A6.148 6.148 0 0128.154 22a6.148 6.148 0 01-6.157 6.157zm6.409-11.128a1.436 1.436 0 01-1.438-1.438c0-.796.642-1.438 1.438-1.438a1.436 1.436 0 011.329 1.988 1.436 1.436 0 01-1.329.888z" fill="#011B2B"/></svg>