<svg width="33" height="33" viewBox="0 0 33 33" fill="none" xmlns="http://www.w3.org/2000/svg"><path d="M24.517 17.517c-.385-.783-1.471-1.443-2.915-.33-1.966 1.568-5.101 1.568-5.101 1.568s-3.135 0-5.102-1.567c-1.443-1.114-2.53-.454-2.915.33-.687 1.374.083 2.048 1.83 3.162 1.498.962 3.547 1.32 4.867 1.457l-1.1 1.1a624.262 624.262 0 00-4.112 4.098c-.618.633-.618 1.636 0 2.227l.193.22a1.602 1.602 0 002.255 0l4.084-4.097a660.583 660.583 0 014.125 4.098 1.602 1.602 0 002.255 0l.178-.22c.633-.592.633-1.595 0-2.228l-4.097-4.098-1.086-1.113c1.306-.124 3.327-.495 4.812-1.444 1.746-1.114 2.516-1.788 1.829-3.163zM16.5 6.284a3.436 3.436 0 013.437 3.423 3.427 3.427 0 01-3.437 3.424 3.427 3.427 0 01-3.438-3.424A3.436 3.436 0 0116.5 6.284zm0 10.381a6.948 6.948 0 006.957-6.957 6.958 6.958 0 00-13.915 0 6.948 6.948 0 006.958 6.957z" fill="#fff"/></svg>