<svg width="47" height="47" viewBox="0 0 47 47" fill="none" xmlns="http://www.w3.org/2000/svg">
<path d="M37.2087 15.6667H9.79199C6.54116 15.6667 3.91699 18.2908 3.91699 21.5417V29.375C3.91699 31.5292 5.67949 33.2917 7.83366 33.2917H11.7503V37.2083C11.7503 39.3625 13.5128 41.125 15.667 41.125H31.3337C33.4878 41.125 35.2503 39.3625 35.2503 37.2083V33.2917H39.167C41.3212 33.2917 43.0837 31.5292 43.0837 29.375V21.5417C43.0837 18.2908 40.4595 15.6667 37.2087 15.6667ZM29.3753 37.2083H17.6253C16.5482 37.2083 15.667 36.3271 15.667 35.25V27.4167H31.3337V35.25C31.3337 36.3271 30.4524 37.2083 29.3753 37.2083ZM37.2087 23.5C36.1316 23.5 35.2503 22.6187 35.2503 21.5417C35.2503 20.4646 36.1316 19.5833 37.2087 19.5833C38.2857 19.5833 39.167 20.4646 39.167 21.5417C39.167 22.6187 38.2857 23.5 37.2087 23.5ZM33.292 5.875H13.7087C12.6316 5.875 11.7503 6.75625 11.7503 7.83333V11.75C11.7503 12.8271 12.6316 13.7083 13.7087 13.7083H33.292C34.3691 13.7083 35.2503 12.8271 35.2503 11.75V7.83333C35.2503 6.75625 34.3691 5.875 33.292 5.875Z" fill="#011B2B"/>
</svg>
