<svg width="41" height="43" viewBox="0 0 41 43" fill="none" xmlns="http://www.w3.org/2000/svg">
<path d="M19.4224 0.00625699C15.9716 0.0479132 8.5528 0.614976 4.4033 4.42182C1.31671 7.4802 0.239023 12.0019 0.11271 17.5933C0.00789799 23.1644 -0.118415 33.6269 9.96643 36.4756V40.8146C9.96643 40.8146 9.90327 42.5507 11.0508 42.9068C12.4645 43.3543 13.2694 42.0186 14.6131 40.5835L17.1192 37.7495C24.0194 38.3233 29.3043 37.001 29.9131 36.8049C31.3132 36.3574 39.1997 35.3496 40.4884 24.8858C41.8106 14.0794 39.8447 7.27057 36.2959 4.19069H36.2744C35.2034 3.20438 30.8994 0.0680695 21.2835 0.033132C21.2835 0.033132 20.57 -0.015243 19.4224 0.00491324V0.00625699ZM19.5406 3.04448C20.5202 3.03776 21.1155 3.07941 21.1155 3.07941C29.2546 3.10091 33.1394 5.55057 34.0558 6.37563C37.0443 8.93682 38.5843 15.0751 37.4569 24.097C36.3859 32.8448 29.9896 33.3984 28.8058 33.776C28.3019 33.9373 23.6471 35.0849 17.783 34.7073C17.783 34.7073 13.4158 39.9774 12.0506 41.3346C11.8342 41.5725 11.5816 41.6424 11.4204 41.6074C11.1892 41.551 11.1194 41.2648 11.1328 40.8724L11.1745 33.6712C2.62149 31.3062 3.1254 22.3824 3.21677 17.7209C3.32159 13.0594 4.19637 9.24588 6.80055 6.6632C10.3064 3.49329 16.6059 3.06598 19.538 3.04448H19.5406ZM20.1856 7.7046C20.1153 7.70389 20.0454 7.71712 19.9802 7.74353C19.9149 7.76994 19.8555 7.809 19.8054 7.85846C19.7553 7.90793 19.7155 7.96682 19.6883 8.03174C19.6611 8.09666 19.647 8.16633 19.6468 8.23673C19.6468 8.53773 19.8914 8.77557 20.1856 8.77557C21.518 8.75023 22.8421 8.98891 24.0818 9.47785C25.3214 9.96678 26.452 10.6963 27.4083 11.6243C29.3608 13.5204 30.3121 16.0681 30.3484 19.3993C30.3484 19.6935 30.5863 19.9381 30.8873 19.9381V19.9166C31.0291 19.917 31.1654 19.8612 31.2663 19.7616C31.3673 19.6619 31.4247 19.5263 31.4261 19.3845C31.4914 17.8165 31.2371 16.2517 30.6788 14.785C30.1204 13.3184 29.2697 11.9806 28.1783 10.853C26.0511 8.77423 23.3556 7.70326 20.1856 7.70326V7.7046ZM13.1027 8.93682C12.7224 8.88125 12.3345 8.95759 12.0036 9.15316H11.9753C11.2071 9.60351 10.515 10.1727 9.92477 10.8396C9.4343 11.4066 9.16824 11.9804 9.09837 12.5327C9.05671 12.8619 9.08493 13.1911 9.18302 13.5056L9.21796 13.5271C9.77024 15.1503 10.4918 16.7118 11.3733 18.1818C12.5088 20.2471 13.9062 22.1571 15.5309 23.8645L15.5793 23.9344L15.6559 23.9909L15.7042 24.0473L15.7607 24.0957C17.4743 25.7251 19.3889 27.129 21.4582 28.2734C23.8232 29.5607 25.2583 30.1694 26.1196 30.422V30.4355C26.3723 30.5121 26.6021 30.547 26.8332 30.547C27.5673 30.4932 28.2622 30.1952 28.8071 29.7004C29.471 29.1101 30.0338 28.4152 30.4734 27.6432V27.6297C30.8859 26.853 30.7462 26.118 30.1509 25.6208C28.9587 24.5787 27.6696 23.6532 26.3011 22.8567C25.3846 22.3595 24.4534 22.6605 24.0758 23.1644L23.2709 24.179C22.8584 24.6829 22.1086 24.613 22.1086 24.613L22.0871 24.6264C16.4957 23.198 15.0041 17.5368 15.0041 17.5368C15.0041 17.5368 14.9343 16.7669 15.4516 16.3745L16.4594 15.5629C16.9418 15.1705 17.2778 14.2406 16.7604 13.3228C15.9695 11.9524 15.0459 10.6629 14.0031 9.47298C13.7751 9.19244 13.4552 9.00157 13.1001 8.93413L13.1027 8.93682ZM21.1155 10.5332C20.402 10.5332 20.402 11.6109 21.1222 11.6109C22.0095 11.6253 22.8852 11.8144 23.6993 12.1674C24.5135 12.5204 25.2501 13.0304 25.867 13.6682C26.4298 14.289 26.8623 15.0165 27.1388 15.8075C27.4153 16.5985 27.5303 17.4369 27.4768 18.2732C27.4793 18.4147 27.5371 18.5497 27.6378 18.6491C27.7385 18.7486 27.8741 18.8046 28.0157 18.8053L28.0372 18.8335C28.1798 18.8325 28.3162 18.7754 28.417 18.6746C28.5179 18.5737 28.575 18.4373 28.576 18.2947C28.6244 16.1595 27.9606 14.3683 26.6585 12.9331C25.3497 11.498 23.5235 10.6931 21.1921 10.5332H21.1155ZM21.9984 13.4303C21.2633 13.4088 21.2351 14.508 21.9634 14.5295C23.7345 14.6209 24.5945 15.5158 24.7074 17.3568C24.7098 17.4965 24.7669 17.6297 24.8663 17.7279C24.9658 17.8261 25.0997 17.8815 25.2395 17.8822H25.261C25.3328 17.8791 25.4034 17.8617 25.4684 17.8311C25.5335 17.8005 25.5918 17.7572 25.64 17.7038C25.6881 17.6503 25.7252 17.5879 25.7489 17.52C25.7727 17.4521 25.7827 17.3802 25.7783 17.3084C25.652 14.9084 24.3432 13.5566 22.0199 13.4317H21.9984V13.4303Z" fill="#011B2B"/>
</svg>
