<svg width="43" height="23" viewBox="0 0 43 23" fill="none" xmlns="http://www.w3.org/2000/svg">
<path fill-rule="evenodd" clip-rule="evenodd" d="M21.128 22.3617H23.688C23.688 22.3617 24.456 22.2437 24.84 21.8897C25.224 21.5357 25.224 20.8277 25.224 20.8277C25.224 20.8277 25.224 17.7597 26.76 17.2877C28.296 16.8157 30.344 20.3557 32.392 21.6537C33.928 22.7157 35.08 22.4797 35.08 22.4797L40.712 22.3617C40.712 22.3617 43.656 22.2437 42.248 20.0017C42.12 19.8837 41.48 18.4677 38.024 15.5177C34.44 12.4497 34.952 13.0397 39.176 7.72973C41.736 4.54373 42.76 2.65573 42.504 1.71173C42.248 0.885733 40.328 1.12173 40.328 1.12173H33.928C33.928 1.12173 33.416 1.00373 33.16 1.23973C32.776 1.47573 32.648 1.82973 32.648 1.82973C32.648 1.82973 31.624 4.30773 30.344 6.43173C27.528 10.7977 26.376 11.0337 25.992 10.7977C24.968 10.2077 25.224 8.20173 25.224 6.90373C25.224 2.65573 25.992 0.885733 23.816 0.413733C23.176 0.295733 22.664 0.177734 20.872 0.177734C18.568 0.177734 16.648 0.177734 15.624 0.649734C14.856 1.00373 14.344 1.71173 14.728 1.71173C15.112 1.71173 16.136 1.94773 16.648 2.53773C17.16 3.59973 17.16 5.36973 17.16 5.36973C17.16 5.36973 17.544 10.4437 16.264 11.0337C15.368 11.5057 14.216 10.5617 11.656 6.54973C10.376 4.54373 9.35203 2.18373 9.35203 2.18373C9.35203 2.18373 9.22403 1.71173 8.84003 1.47573C8.45603 1.23973 7.81603 1.12173 7.81603 1.12173H1.80003C1.80003 1.12173 0.904028 1.12173 0.520028 1.47573C0.264028 1.82973 0.520028 2.41973 0.520028 2.41973C0.520028 2.41973 5.25603 12.5677 10.632 17.7597C15.624 22.7157 21.128 22.3617 21.128 22.3617Z" fill="#011B2B"/>
</svg>
