<svg width="34" height="34" viewBox="0 0 34 34" fill="none" xmlns="http://www.w3.org/2000/svg">
<path d="M31.4573 7.8623C26.3713 -0.000259908 15.9874 -2.33778 7.93459 2.54976C0.0936946 7.4373 -2.4493 18.0624 2.63669 25.9249L3.06052 26.5624L1.36519 32.9375L7.72267 31.2375L8.35842 31.6625C11.1133 33.15 14.0802 34 17.047 34C20.2257 34 23.4045 33.15 26.1594 31.45C34.0003 26.3499 36.3313 15.9374 31.4573 7.8623ZM27.007 24.2249C26.1594 25.4999 25.0998 26.3499 23.6164 26.5624C22.7687 26.5624 21.7091 26.9874 17.4708 25.2874C13.8682 23.5874 10.9014 20.8249 8.78225 17.6374C7.51076 16.1499 6.87501 14.2373 6.66309 12.3248C6.66309 10.6248 7.29884 9.13731 8.35842 8.0748C8.78225 7.6498 9.20609 7.4373 9.62992 7.4373H10.6895C11.1133 7.4373 11.5372 7.4373 11.7491 8.2873C12.1729 9.34981 13.2325 11.8998 13.2325 12.1123C13.4444 12.3248 13.4444 12.7498 13.2325 12.9623C13.4444 13.3873 13.2325 13.8123 13.0206 14.0248C12.8087 14.2374 12.5967 14.6624 12.3848 14.8749C11.961 15.0874 11.7491 15.5124 11.961 15.9374C12.8087 17.2124 13.8682 18.4874 14.9278 19.5499C16.1993 20.6124 17.4708 21.4624 18.9542 22.0999C19.3781 22.3124 19.8019 22.3124 20.0138 21.8874C20.2257 21.4624 21.2853 20.3999 21.7091 19.9749C22.133 19.5499 22.3449 19.5499 22.7687 19.7624L26.1594 21.4624C26.5832 21.6749 27.007 21.8874 27.2189 22.0999C27.4309 22.7374 27.4309 23.5874 27.007 24.2249Z" fill="#011B2B"/>
</svg>
