<svg width="44" height="44" viewBox="0 0 44 44" fill="none" xmlns="http://www.w3.org/2000/svg"><rect x=".723" y=".5" width="42.556" height="42.556" rx="19.5" fill="#fff" stroke="#fff"/><path d="M19.581 25.796l6.28-3.5-6.28-3.5v7zm13.987-9.135c.157.549.266 1.284.338 2.217.085.933.121 1.738.121 2.438l.073.98c0 2.555-.194 4.434-.532 5.635-.303 1.05-1.005 1.727-2.094 2.019-.568.151-1.609.256-3.206.326a83.584 83.584 0 01-4.343.117l-1.924.07c-5.07 0-8.227-.187-9.473-.513-1.09-.292-1.79-.969-2.093-2.019-.158-.548-.267-1.283-.34-2.216a27.07 27.07 0 01-.12-2.439l-.073-.98c0-2.555.194-4.433.533-5.635.302-1.05 1.004-1.726 2.093-2.018.568-.152 1.609-.257 3.206-.327a83.584 83.584 0 014.343-.116l1.924-.07c5.07 0 8.227.186 9.473.513 1.09.292 1.791.968 2.094 2.018z" fill="#011B2B"/></svg>